<?xml version="1.0" encoding="UTF-8"?>
<svg version="1.1" xmlns="http://www.w3.org/2000/svg" width="1000" height="1000">
<path d="M0 0 C1.28181152 0.17160645 2.56362305 0.34321289 3.88427734 0.52001953 C59.39014418 7.98395501 111.93006101 25.06920931 162 50 C163.45986328 50.72292236 163.45986328 50.72292236 164.94921875 51.46044922 C180.22069047 59.06784733 194.71491523 67.67837689 209 77 C209.74830078 77.48823242 210.49660156 77.97646484 211.26757812 78.47949219 C227.99365476 89.49016539 243.9315101 101.82062757 259 115 C259.72960937 115.63035156 260.45921875 116.26070313 261.2109375 116.91015625 C263.15207512 118.59426577 265.07621066 120.29611148 267 122 C267.6801416 122.59530518 268.3602832 123.19061035 269.06103516 123.80395508 C276.0772801 130.01627087 282.71951828 136.56636405 289.33276367 143.20239258 C291.19142108 145.06643244 293.05539614 146.92503512 294.91992188 148.78320312 C300.82570907 154.68544502 306.62586549 160.60213037 312 167 C312.845625 167.96421875 313.69125 168.9284375 314.5625 169.921875 C322.87899491 179.57114153 330.45285684 189.74357061 338 200 C338.46792969 200.63019043 338.93585937 201.26038086 339.41796875 201.90966797 C388.52738849 268.11294343 418.11017169 347.65860637 429 429 C429.2477417 430.74289307 429.2477417 430.74289307 429.50048828 432.52099609 C434.94462209 472.04867292 434.61132018 515.52367824 429 555 C428.74259033 556.92271729 428.74259033 556.92271729 428.47998047 558.88427734 C421.01604499 614.39014418 403.93079069 666.93006101 379 717 C378.27707764 718.45986328 378.27707764 718.45986328 377.53955078 719.94921875 C369.93215267 735.22069047 361.32162311 749.71491523 352 764 C351.51176758 764.74830078 351.02353516 765.49660156 350.52050781 766.26757812 C339.50983461 782.99365476 327.17937243 798.9315101 314 814 C313.36964844 814.72960937 312.73929688 815.45921875 312.08984375 816.2109375 C310.40573423 818.15207512 308.70388852 820.07621066 307 822 C306.40469482 822.6801416 305.80938965 823.3602832 305.19604492 824.06103516 C298.98372913 831.0772801 292.43363595 837.71951828 285.79760742 844.33276367 C283.93356756 846.19142108 282.07496488 848.05539614 280.21679688 849.91992188 C274.31455498 855.82570907 268.39786963 861.62586549 262 867 C261.03578125 867.845625 260.0715625 868.69125 259.078125 869.5625 C249.42885847 877.87899491 239.25642939 885.45285684 229 893 C228.36980957 893.46792969 227.73961914 893.93585937 227.09033203 894.41796875 C160.88705657 943.52738849 81.34139363 973.11017169 0 984 C-1.16192871 984.16516113 -2.32385742 984.33032227 -3.52099609 984.50048828 C-43.24935949 989.97226259 -87.31471624 989.72135831 -127 984 C-128.06495697 983.84727631 -128.06495697 983.84727631 -129.15142822 983.69146729 C-184.98188231 975.62063293 -237.49224516 959.14878766 -288 934 C-288.97324219 933.51805176 -289.94648438 933.03610352 -290.94921875 932.53955078 C-306.22069047 924.93215267 -320.71491523 916.32162311 -335 907 C-335.74830078 906.51176758 -336.49660156 906.02353516 -337.26757812 905.52050781 C-353.99365476 894.50983461 -369.9315101 882.17937243 -385 869 C-385.72960937 868.36964844 -386.45921875 867.73929688 -387.2109375 867.08984375 C-389.15207512 865.40573423 -391.07621066 863.70388852 -393 862 C-394.0202124 861.10704224 -394.0202124 861.10704224 -395.06103516 860.19604492 C-402.0772801 853.98372913 -408.71951828 847.43363595 -415.33276367 840.79760742 C-417.19142108 838.93356756 -419.05539614 837.07496488 -420.91992188 835.21679688 C-426.82570907 829.31455498 -432.62586549 823.39786963 -438 817 C-438.845625 816.03578125 -439.69125 815.0715625 -440.5625 814.078125 C-448.87899491 804.42885847 -456.45285684 794.25642939 -464 784 C-464.46792969 783.36980957 -464.93585938 782.73961914 -465.41796875 782.09033203 C-514.24855351 716.26294758 -544.02773573 636.88567772 -555 556 C-555.16516113 554.82131348 -555.33032227 553.64262695 -555.50048828 552.42822266 C-560.86279132 512.29690196 -560.77633024 468.06658772 -555 428 C-554.84727631 426.93504303 -554.84727631 426.93504303 -554.69146729 425.84857178 C-546.62063293 370.01811769 -530.14878766 317.50775484 -505 267 C-504.51805176 266.02675781 -504.03610352 265.05351562 -503.53955078 264.05078125 C-495.93215267 248.77930953 -487.32162311 234.28508477 -478 220 C-477.51176758 219.25169922 -477.02353516 218.50339844 -476.52050781 217.73242188 C-465.50983461 201.00634524 -453.17937243 185.0684899 -440 170 C-439.36964844 169.27039063 -438.73929687 168.54078125 -438.08984375 167.7890625 C-436.40573423 165.84792488 -434.70388852 163.92378934 -433 162 C-432.10704224 160.9797876 -432.10704224 160.9797876 -431.19604492 159.93896484 C-424.98372913 152.9227199 -418.43363595 146.28048172 -411.79760742 139.66723633 C-409.93356756 137.80857892 -408.07496488 135.94460386 -406.21679688 134.08007812 C-400.31455498 128.17429093 -394.39786963 122.37413451 -388 117 C-387.03578125 116.154375 -386.0715625 115.30875 -385.078125 114.4375 C-375.42885847 106.12100509 -365.25642939 98.54714316 -355 91 C-354.36980957 90.53207031 -353.73961914 90.06414062 -353.09033203 89.58203125 C-287.26294758 40.75144649 -207.88567772 10.97226427 -127 0 C-125.82131348 -0.16516113 -124.64262695 -0.33032227 -123.42822266 -0.50048828 C-83.53963158 -5.83035806 -39.83031008 -5.66163748 0 0 Z M-353 142 C-353.99 142.81597656 -354.98 143.63195312 -356 144.47265625 C-371.90365285 157.6550393 -387.76576911 171.98246998 -401.12109375 187.78125 C-402.67485351 189.61604323 -404.25209233 191.42058297 -405.84765625 193.21875 C-467.03747058 262.448578 -504.34138157 350.02312173 -517.234375 518.36425781 C-515.74592152 541.45389238 -512.60991204 564.32808796 -508 587 C-505.86103071 586.20114739 -505.86103071 586.20114739 -505.25732422 584.24438477 C-505.0254541 583.48440186 -504.79358398 582.72441895 -504.5546875 581.94140625 C-504.1529834 580.66426758 -504.1529834 580.66426758 -503.74316406 579.36132812 C-503.31342285 577.9759082 -503.31342285 577.9759082 -502.875 576.5625 C-495.7580159 554.53196159 -485.5436028 532.83205723 -472 514 C-471.11794912 512.75819621 -470.2364728 511.51598418 -469.35546875 510.2734375 C-467.61254181 507.82069325 -465.86122811 505.37435222 -464.1015625 502.93359375 C-460.9110189 498.47987954 -459.75631083 496.44031976 -459.7265625 490.97265625 C-459.70021729 489.1002124 -459.70021729 489.1002124 -459.67333984 487.18994141 C-459.66631042 486.51972961 -459.65928101 485.84951782 -459.65203857 485.15899658 C-459.1515338 446.35123507 -452.96638702 407.93352267 -441 371 C-440.67837891 369.98631348 -440.35675781 368.97262695 -440.02539062 367.92822266 C-422.78708963 314.00434976 -393.34189619 265.25612333 -355.28515625 223.5078125 C-353.6965598 221.76442973 -352.12199204 220.00820221 -350.55859375 218.2421875 C-339.70012322 206.10529794 -327.77244093 195.09749144 -315 185 C-313.86197028 184.07191772 -312.72533581 183.14212284 -311.58984375 182.2109375 C-255.91202988 136.74084675 -188.81214799 108.75359156 -118 98 C-116.96149902 97.83483887 -115.92299805 97.66967773 -114.85302734 97.49951172 C-56.85606762 88.64102806 5.31187075 94.95715819 61 113 C62.01368652 113.32162109 63.02737305 113.64324219 64.07177734 113.97460938 C85.65256222 120.87352159 106.37608319 129.78939189 126.4375 140.3125 C127.2003833 140.70832275 127.9632666 141.10414551 128.74926758 141.51196289 C132.15848884 143.32119134 135.3297077 145.17403538 138.38671875 147.53515625 C145.07273311 152.36618472 149.06417356 153.4903227 157.10791016 152.26147461 C160.30769367 151.66509828 163.49487584 151.02003086 166.68359375 150.3671875 C174.99120793 148.69760461 183.3151688 147.9835756 191.75 147.3125 C192.49862305 147.25116882 193.24724609 147.18983765 194.01855469 147.12664795 C205.99973981 146.14846605 217.98475774 145.40469457 230 145 C166.19967152 79.05311841 62.09643664 46.38674729 -59.90917969 37.04785156 C-166.01413809 35.52858311 -271.83596143 73.93074091 -353 142 Z M117 188 C115.81132324 188.42853271 115.81132324 188.42853271 114.59863281 188.86572266 C94.98783349 196.05376019 76.78491041 205.56353552 60 218 C59.41250977 218.43199707 58.82501953 218.86399414 58.21972656 219.30908203 C51.61179648 224.1937676 45.318571 229.34386434 39.26953125 234.9140625 C37.1723995 236.84154676 35.03623645 238.70761357 32.875 240.5625 C26.02558428 246.54367993 19.89650365 253.09132208 14 260 C13.19949219 260.91136719 12.39898438 261.82273437 11.57421875 262.76171875 C3.75702619 271.73028076 -3.20207294 281.24348608 -10 291 C-10.50144531 291.71784668 -11.00289062 292.43569336 -11.51953125 293.17529297 C-23.67707899 310.69387016 -34.07841171 329.2627518 -44.15795898 348.03369141 C-48.02695007 355.23426439 -51.97991025 362.38268032 -56 369.5 C-56.52795166 370.437229 -57.05590332 371.37445801 -57.59985352 372.34008789 C-66.2669987 387.63349935 -66.2669987 387.63349935 -69 389 C-70.76292797 389.1095558 -72.52989712 389.15642362 -74.29614258 389.17358398 C-75.97250793 389.1939547 -75.97250793 389.1939547 -77.68273926 389.21473694 C-79.52007629 389.23025856 -79.52007629 389.23025856 -81.39453125 389.24609375 C-83.34680882 389.26942372 -85.29908629 389.29276827 -87.25135612 389.31673717 C-89.33573959 389.34183236 -91.4201384 389.36498449 -93.50454712 389.38787842 C-178.57163766 390.34388709 -268.31568137 392.35957351 -401 472 C-401.73476563 472.63550781 -402.46953125 473.27101563 -403.2265625 473.92578125 C-405.1631519 475.60390155 -407.08136427 477.30140901 -409 479 C-409.75410156 479.6496875 -410.50820313 480.299375 -411.28515625 480.96875 C-422.88149605 491.11325011 -432.82153832 502.65893355 -442 515 C-442.80824219 516.08015381 -442.80824219 516.08015381 -443.6328125 517.18212891 C-477.47718623 562.80055845 -494.29634017 617.56886654 -485.97265625 674.24609375 C-480.71738304 706.76139843 -467.42769212 735.05541087 -446 760 C-444.81083984 761.3921875 -444.81083984 761.3921875 -443.59765625 762.8125 C-437.90384169 769.28887676 -431.82571422 774.74655374 -425 780 C-424.07574219 780.73992188 -423.15148437 781.47984375 -422.19921875 782.2421875 C-389.36601036 807.92228825 -347.63819797 816.0978906 -306.87011719 811.37548828 C-258.11013856 804.99637573 -214.00833997 775.40885904 -183 738 C-182.33411865 737.20480957 -182.33411865 737.20480957 -181.65478516 736.39355469 C-157.87921598 707.93666587 -139.34053609 676.41503504 -120.92333984 644.34667969 C-117.78945793 638.89361377 -114.64425723 633.44708772 -111.5 628 C-110.24994361 625.83336586 -108.99994366 623.66669917 -107.75 621.5 C-90.25 591.16666667 -72.75 560.83333333 -55.25 530.5 C-54.6310083 529.4270166 -54.0120166 528.3540332 -53.37426758 527.24853516 C-52.12693452 525.08662116 -50.8793767 522.92483683 -49.6315918 520.76318359 C-46.46391168 515.27485415 -43.30043239 509.78417467 -40.14453125 504.2890625 C-34.23019468 493.99673655 -28.29766152 483.71469901 -22.25 473.5 C-21.51583862 472.24437256 -21.51583862 472.24437256 -20.7668457 470.96337891 C-20.31269287 470.20202637 -19.85854004 469.44067383 -19.390625 468.65625 C-18.8032959 467.66334961 -18.8032959 467.66334961 -18.20410156 466.65039062 C-17 465 -17 465 -14 463 C-12.03344059 462.74273109 -12.03344059 462.74273109 -9.75587463 462.73257446 C-8.4583728 462.71977951 -8.4583728 462.71977951 -7.13465881 462.70672607 C-6.18860275 462.70763245 -5.24254669 462.70853882 -4.26782227 462.70947266 C-3.26919159 462.70275543 -2.27056091 462.69603821 -1.2416687 462.68911743 C2.06680241 462.67008473 5.37507127 462.66621069 8.68359375 462.6640625 C10.97900985 462.6576387 13.27442512 462.65091066 15.56983948 462.64389038 C20.38422546 462.63190473 25.1985396 462.62821093 30.01293945 462.62939453 C36.18825368 462.62959789 42.36310858 462.60228315 48.53831387 462.56785011 C53.27975082 462.54563664 58.02107622 462.54155527 62.76255989 462.54261398 C65.03958788 462.54025013 67.31661859 462.53138277 69.5935955 462.51594925 C72.77553569 462.49640015 75.95647212 462.50208388 79.13842773 462.51416016 C80.08245956 462.50292114 81.02649139 462.49168213 81.99913025 462.48010254 C88.32743938 462.54127649 88.32743938 462.54127649 91.61244202 464.78182983 C93.45699402 467.73055722 93.22028354 470.01541078 92.66796875 473.37988281 C91.33704028 478.60046921 89.14984199 483.44810483 87 488.375 C85.90431722 490.94621199 84.81944049 493.52194873 83.734375 496.09765625 C83.44197937 496.78919296 83.14958374 497.48072968 82.84832764 498.19322205 C67.49077977 534.57422424 67.49077977 534.57422424 55 572 C54.80245117 572.67579102 54.60490234 573.35158203 54.40136719 574.04785156 C50.55519878 587.70983552 49.95914781 602.91148692 56 616 C63.71127234 629.48584264 75.54603538 637.43716289 90.21484375 642 C99.1152656 644.33453688 107.71785605 645.14956954 116.8815918 645.16113281 C117.83723526 645.16609772 118.79287872 645.17106262 119.77748108 645.17617798 C122.91806781 645.19070242 126.05860404 645.1975855 129.19921875 645.203125 C130.27891245 645.20595238 131.35860615 645.20877975 132.47101784 645.21169281 C138.18535224 645.22664649 143.89966165 645.23589994 149.61401367 645.24023438 C155.48665979 645.24571174 161.35907323 645.26973547 167.23164654 645.29820633 C171.7744054 645.31692148 176.3171092 645.32204303 180.85990334 645.32357025 C183.02342818 645.32657753 185.1869525 645.33454016 187.35043907 645.34775543 C206.71872579 645.4576158 223.0344142 644.32868521 237.7421875 630.3125 C246.07401435 621.77886419 250.13740407 612.90767086 250.4375 600.8125 C250.21242031 593.78069995 248.8985695 588.34148231 245.4375 582.25 C234.30465324 571.97352607 217.83978634 572.71196061 203.5725956 572.72560501 C201.29759083 572.72659097 199.02303244 572.71339863 196.74809265 572.69662476 C190.29376314 572.6509088 183.83949652 572.62569405 177.38500977 572.61914062 C173.40584403 572.61413153 169.42717058 572.58994602 165.44817162 572.55381393 C163.94152974 572.54403343 162.43482016 572.54167447 160.9281559 572.54698563 C158.83217724 572.55404487 156.73768373 572.53681207 154.6418457 572.51416016 C153.45242874 572.51131012 152.26301178 572.50846008 151.03755188 572.50552368 C147.38740421 571.89804892 146.19768387 570.92828744 144 568 C143.32277695 563.23856957 144.61169676 559.81427874 146.46484375 555.453125 C146.72933319 554.82119736 146.99382263 554.18926971 147.2663269 553.53819275 C147.84345919 552.16245498 148.42541613 550.78873343 149.0116272 549.4168396 C150.28629275 546.43371299 151.53803005 543.4411371 152.79112244 540.44889832 C153.46433871 538.84165506 154.13873309 537.23490483 154.81422424 535.62861633 C158.53759545 526.76120461 162.12415645 517.83946443 165.71334839 508.91711426 C175.60442495 484.35378439 175.60442495 484.35378439 180.375 473 C180.88317261 471.76479614 180.88317261 471.76479614 181.40161133 470.50463867 C182.92521382 466.92992563 183.69022739 465.20651507 187 463 C189.4929657 462.74171448 189.4929657 462.74171448 192.50268555 462.72875977 C193.63204025 462.71857315 194.76139496 462.70838654 195.92497253 462.69789124 C197.76228691 462.69468117 197.76228691 462.69468117 199.63671875 462.69140625 C202.24284047 462.66621407 204.84896021 462.6408166 207.45507812 462.61523438 C211.55343623 462.58467719 215.65181714 462.56248542 219.75024414 462.54370117 C253.03524552 462.90974179 253.03524552 462.90974179 281.5 447.3125 C289.80062806 438.26099276 293.56929897 428.24626581 294 416 C293.45686751 408.03767773 290.92098377 401.98891363 285.3125 396.25 C277.20458431 390.00998387 266.48043394 389.86746142 256.7109375 389.82421875 C254.697906 389.80103876 252.6848851 389.7769222 250.671875 389.75195312 C247.51392295 389.71673891 244.35636748 389.68742124 241.19824219 389.67407227 C238.13949562 389.65863125 235.08188492 389.61847271 232.0234375 389.57421875 C231.0785849 389.57612717 230.1337323 389.57803558 229.1602478 389.58000183 C225.2422616 389.50668538 222.72030868 389.42816969 219.31103516 387.40161133 C217.43044288 383.95666045 218.25507772 381.80941494 219 378 C219.76210012 375.70971081 220.60081788 373.44402573 221.49902344 371.20361328 C221.75553397 370.55759061 222.01204451 369.91156794 222.27632809 369.24596882 C223.1300764 367.10110137 223.99470434 364.96079754 224.859375 362.8203125 C225.47471289 361.28063486 226.08934463 359.74067485 226.70332336 358.20045471 C228.02118209 354.89863681 229.34379915 351.59878146 230.67019653 348.30038452 C232.76645057 343.08726809 234.85175521 337.86981684 236.93530273 332.65161133 C239.82857352 325.4079868 242.72602518 318.16604978 245.62646484 310.92529297 C251.51097687 296.23291363 257.37253736 281.53140782 263.22194481 266.82501984 C265.08886089 262.13173862 266.9594111 257.43992896 268.83286095 252.74925232 C284.3118243 220.83443245 284.3118243 220.83443245 283.1171875 187.40625 C279.59757102 179.82553758 273.0321594 175.96284531 265.40625 172.98828125 C223.15187372 159.62077024 156.85783704 173.54445643 117 188 Z M306 228 C303.16404551 235.06666315 300.32998099 242.13408173 297.49829292 249.20245552 C296.18321252 252.48494945 294.86749513 255.76718498 293.55029297 259.04882812 C292.03420515 262.82605219 290.52094077 266.60440187 289.0078125 270.3828125 C288.53691193 271.55490265 288.06601135 272.7269928 287.58084106 273.93460083 C287.14053558 275.035289 286.7002301 276.13597717 286.24658203 277.27001953 C285.86019562 278.23376495 285.4738092 279.19751038 285.07571411 280.19046021 C282.57512428 285.63276848 282.57512428 285.63276848 282.71582031 291.27563477 C283.39016113 292.34769165 283.39016113 292.34769165 284.078125 293.44140625 C284.82280029 294.67068848 284.82280029 294.67068848 285.58251953 295.92480469 C286.40792236 297.23046387 286.40792236 297.23046387 287.25 298.5625 C288.38340439 300.45095803 289.51087782 302.3429866 290.6328125 304.23828125 C291.48794434 305.68001709 291.48794434 305.68001709 292.36035156 307.15087891 C314.80729067 346.15561079 327.21043392 391.8183519 334 436 C334.24991699 437.56645264 334.24991699 437.56645264 334.50488281 439.16455078 C343.35886016 497.15535272 337.04069072 559.31850997 319 615 C318.67837891 616.01368652 318.35675781 617.02737305 318.02539062 618.07177734 C300.78708963 671.99565024 271.34189619 720.74387667 233.28515625 762.4921875 C231.6965598 764.23557027 230.12199204 765.99179779 228.55859375 767.7578125 C217.70012322 779.89470206 205.77244093 790.90250856 193 801 C191.86197028 801.92808228 190.72533581 802.85787716 189.58984375 803.7890625 C133.91202988 849.25915325 66.81214799 877.24640844 -4 888 C-5.03850098 888.16516113 -6.07700195 888.33032227 -7.14697266 888.50048828 C-65.14393238 897.35897194 -127.31187075 891.04284181 -183 873 C-184.01368652 872.67837891 -185.02737305 872.35675781 -186.07177734 872.02539062 C-207.57690749 865.1506636 -228.24316208 856.26966936 -248.25 845.8125 C-249.00152344 845.4218335 -249.75304687 845.03116699 -250.52734375 844.62866211 C-254.27455492 842.62968053 -257.78071496 840.49936582 -261.23046875 838.01953125 C-269.34255874 832.22704387 -269.34255874 832.22704387 -278.98046875 831.1953125 C-282.31321616 831.78187604 -285.51519954 832.61894147 -288.7578125 833.578125 C-303.69534421 837.88262882 -319.05162426 837.24312145 -334.4375 837.125 C-336.72981378 837.1149467 -339.02213185 837.10582502 -341.31445312 837.09765625 C-346.87639708 837.07583695 -352.43817797 837.04254687 -358 837 C-296.19580286 899.23784267 -200.64533591 934.13616068 -115 944 C-113.60031982 944.16556396 -113.60031982 944.16556396 -112.17236328 944.33447266 C-5.86974733 956.54321947 105.5668091 928.69383897 218.98046875 848.63671875 C221.67436619 846.44817004 224.34092385 844.23069087 227 842 C228.00160156 841.17242188 229.00320313 840.34484375 230.03515625 839.4921875 C241.73081303 829.7787237 252.72658274 819.34563719 263.5 808.625 C264.14622314 807.98344971 264.79244629 807.34189941 265.45825195 806.6809082 C269.84032029 802.28408734 273.95337575 797.70543295 278 793 C278.94970251 791.91725044 279.90017749 790.83517774 280.8515625 789.75390625 C342.81645719 718.71747473 378.97348698 630.51867863 391 462 C385.17657238 380.92161625 358.53127485 303.008547 312.8125 235.75 C312.35464111 235.07557861 311.89678223 234.40115723 311.42504883 233.70629883 C309.2076436 230.3225669 309.2076436 230.3225669 306 228 Z " fill="#B045FF" transform="translate(563,8)"/>
<path d="M0 0 C1.28181152 0.17160645 2.56362305 0.34321289 3.88427734 0.52001953 C59.39014418 7.98395501 111.93006101 25.06920931 162 50 C163.45986328 50.72292236 163.45986328 50.72292236 164.94921875 51.46044922 C180.22069047 59.06784733 194.71491523 67.67837689 209 77 C209.74830078 77.48823242 210.49660156 77.97646484 211.26757812 78.47949219 C227.99365476 89.49016539 243.9315101 101.82062757 259 115 C259.72960937 115.63035156 260.45921875 116.26070313 261.2109375 116.91015625 C263.15207512 118.59426577 265.07621066 120.29611148 267 122 C267.6801416 122.59530518 268.3602832 123.19061035 269.06103516 123.80395508 C276.0772801 130.01627087 282.71951828 136.56636405 289.33276367 143.20239258 C291.19142108 145.06643244 293.05539614 146.92503512 294.91992188 148.78320312 C300.82570907 154.68544502 306.62586549 160.60213037 312 167 C312.845625 167.96421875 313.69125 168.9284375 314.5625 169.921875 C322.87899491 179.57114153 330.45285684 189.74357061 338 200 C338.46792969 200.63019043 338.93585937 201.26038086 339.41796875 201.90966797 C388.52738849 268.11294343 418.11017169 347.65860637 429 429 C429.2477417 430.74289307 429.2477417 430.74289307 429.50048828 432.52099609 C434.94462209 472.04867292 434.61132018 515.52367824 429 555 C428.74259033 556.92271729 428.74259033 556.92271729 428.47998047 558.88427734 C421.01604499 614.39014418 403.93079069 666.93006101 379 717 C378.27707764 718.45986328 378.27707764 718.45986328 377.53955078 719.94921875 C369.93215267 735.22069047 361.32162311 749.71491523 352 764 C351.51176758 764.74830078 351.02353516 765.49660156 350.52050781 766.26757812 C339.50983461 782.99365476 327.17937243 798.9315101 314 814 C313.36964844 814.72960937 312.73929688 815.45921875 312.08984375 816.2109375 C310.40573423 818.15207512 308.70388852 820.07621066 307 822 C306.40469482 822.6801416 305.80938965 823.3602832 305.19604492 824.06103516 C298.98372913 831.0772801 292.43363595 837.71951828 285.79760742 844.33276367 C283.93356756 846.19142108 282.07496488 848.05539614 280.21679688 849.91992188 C274.31455498 855.82570907 268.39786963 861.62586549 262 867 C261.03578125 867.845625 260.0715625 868.69125 259.078125 869.5625 C249.42885847 877.87899491 239.25642939 885.45285684 229 893 C228.36980957 893.46792969 227.73961914 893.93585937 227.09033203 894.41796875 C160.88705657 943.52738849 81.34139363 973.11017169 0 984 C-1.16192871 984.16516113 -2.32385742 984.33032227 -3.52099609 984.50048828 C-43.24935949 989.97226259 -87.31471624 989.72135831 -127 984 C-128.06495697 983.84727631 -128.06495697 983.84727631 -129.15142822 983.69146729 C-184.98188231 975.62063293 -237.49224516 959.14878766 -288 934 C-288.97324219 933.51805176 -289.94648438 933.03610352 -290.94921875 932.53955078 C-306.22069047 924.93215267 -320.71491523 916.32162311 -335 907 C-335.74830078 906.51176758 -336.49660156 906.02353516 -337.26757812 905.52050781 C-353.99365476 894.50983461 -369.9315101 882.17937243 -385 869 C-385.72960937 868.36964844 -386.45921875 867.73929688 -387.2109375 867.08984375 C-389.15207512 865.40573423 -391.07621066 863.70388852 -393 862 C-394.0202124 861.10704224 -394.0202124 861.10704224 -395.06103516 860.19604492 C-402.0772801 853.98372913 -408.71951828 847.43363595 -415.33276367 840.79760742 C-417.19142108 838.93356756 -419.05539614 837.07496488 -420.91992188 835.21679688 C-426.82570907 829.31455498 -432.62586549 823.39786963 -438 817 C-438.845625 816.03578125 -439.69125 815.0715625 -440.5625 814.078125 C-448.87811183 804.42988307 -456.46445355 794.2637505 -464 784 C-464.4945166 783.32727051 -464.9890332 782.65454102 -465.49853516 781.96142578 C-470.22791174 775.50273869 -474.78867415 768.93848432 -479.1875 762.25 C-479.78667236 761.354021 -479.78667236 761.354021 -480.39794922 760.43994141 C-481.3293264 758.99939456 -482.17396295 757.5034299 -483 756 C-482.67 755.34 -482.34 754.68 -482 754 C-481.26136719 755.01578125 -480.52273438 756.0315625 -479.76171875 757.078125 C-473.29481151 765.88920547 -466.6152331 774.14483833 -459 782 C-458.46648926 782.55929199 -457.93297852 783.11858398 -457.38330078 783.69482422 C-445.50474794 796.12188166 -432.97587892 806.45742118 -418 815 C-417.42701172 815.3309668 -416.85402344 815.66193359 -416.26367188 816.00292969 C-401.10846842 824.69512925 -385.59469461 830.22833425 -368.546875 833.95703125 C-361.84928617 835.46934599 -357.26370633 837.21047312 -352.125 841.875 C-331.22329494 860.09430958 -307.35128128 875.79111108 -283 889 C-282.11425293 889.48130371 -281.22850586 889.96260742 -280.31591797 890.45849609 C-228.83797897 918.24321226 -173.14232869 936.30370321 -115 943 C-113.60031982 943.16556396 -113.60031982 943.16556396 -112.17236328 943.33447266 C-5.86974733 955.54321947 105.5668091 927.69383897 218.98046875 847.63671875 C221.67436619 845.44817004 224.34092385 843.23069087 227 841 C228.00160156 840.17242188 229.00320313 839.34484375 230.03515625 838.4921875 C246.70700232 824.64547083 263.05201445 809.61496301 277 793 C277.86496094 792.01257813 278.72992187 791.02515625 279.62109375 790.0078125 C341.74620817 718.97820153 377.96339756 630.60680232 390 462 C384.44758925 384.69492831 360.54578366 303.77869617 314.70703125 240.39453125 C314.18778076 239.67096436 313.66853027 238.94739746 313.13354492 238.2019043 C312.16232384 236.86476597 311.17279461 235.54064051 310.16137695 234.23364258 C307.90850755 231.15773048 306.98977328 229.40999845 307.0859375 225.5546875 C307.70227282 223.15782793 308.35288702 220.76955621 309.03515625 218.390625 C310.53234711 212.59162667 310.40789226 206.7044463 310.4375 200.75 C310.47037109 199.59886719 310.50324219 198.44773438 310.53710938 197.26171875 C310.61016079 185.48051782 306.78615203 175.80473954 299 167 C298.32582031 166.19820312 297.65164063 165.39640625 296.95703125 164.5703125 C292.22441383 159.3541278 287.35742561 155.71808331 281.125 152.5625 C280.50189941 152.24474609 279.87879883 151.92699219 279.23681641 151.59960938 C268.86575903 146.68491722 259.0041134 145.77341813 247.6449585 145.97732544 C237.17684358 146.09483276 228.2275865 146.12184509 220.28833008 138.54907227 C219.29921558 137.53489656 218.3262467 136.50467644 217.37158203 135.45800781 C215.22514354 133.17631848 212.79766932 131.33695032 210.3125 129.4375 C209.81041016 129.04949219 209.30832031 128.66148437 208.79101562 128.26171875 C192.52718401 115.89740232 174.94465199 104.73373483 157 95 C156.11425293 94.51869629 155.22850586 94.03739258 154.31591797 93.54150391 C102.83797897 65.75678774 47.14232869 47.69629679 -11 41 C-11.93312012 40.88962402 -12.86624023 40.77924805 -13.82763672 40.66552734 C-124.92730175 27.90584435 -240.10877094 58.98776181 -344.9921875 136.37109375 C-347.68157045 138.55767902 -350.3442497 140.77272104 -353 143 C-353.99 143.81597656 -354.98 144.63195312 -356 145.47265625 C-371.53668946 158.35127889 -387.01965886 172.33045959 -400.0859375 187.74609375 C-401.65397307 189.59253564 -403.24399941 191.41090044 -404.8515625 193.22265625 C-466.03702378 262.4561366 -503.34127589 350.02222339 -516.234375 518.36425781 C-514.99132644 537.64704861 -512.45259124 556.60582445 -509.0859375 575.61328125 C-506.49989794 590.56358345 -506.49989794 590.56358345 -508.3125 597.625 C-511.67512715 611.77324382 -512.32163352 625.43377612 -512.26074219 639.90600586 C-512.25002984 642.92907826 -512.2606913 645.951555 -512.2734375 648.97460938 C-512.29718027 678.90780393 -506.55730532 707.61489189 -493.04541016 734.45898438 C-492.30868194 735.94669736 -491.64650928 737.47092049 -491 739 C-491.33 739.66 -491.66 740.32 -492 741 C-524.86235339 683.5836083 -546.10248352 621.59098767 -555 556 C-555.16516113 554.82131348 -555.33032227 553.64262695 -555.50048828 552.42822266 C-560.86279132 512.29690196 -560.77633024 468.06658772 -555 428 C-554.84727631 426.93504303 -554.84727631 426.93504303 -554.69146729 425.84857178 C-546.62063293 370.01811769 -530.14878766 317.50775484 -505 267 C-504.51805176 266.02675781 -504.03610352 265.05351562 -503.53955078 264.05078125 C-495.93215267 248.77930953 -487.32162311 234.28508477 -478 220 C-477.51176758 219.25169922 -477.02353516 218.50339844 -476.52050781 217.73242188 C-465.50983461 201.00634524 -453.17937243 185.0684899 -440 170 C-439.36964844 169.27039063 -438.73929687 168.54078125 -438.08984375 167.7890625 C-436.40573423 165.84792488 -434.70388852 163.92378934 -433 162 C-432.10704224 160.9797876 -432.10704224 160.9797876 -431.19604492 159.93896484 C-424.98372913 152.9227199 -418.43363595 146.28048172 -411.79760742 139.66723633 C-409.93356756 137.80857892 -408.07496488 135.94460386 -406.21679688 134.08007812 C-400.31455498 128.17429093 -394.39786963 122.37413451 -388 117 C-387.03578125 116.154375 -386.0715625 115.30875 -385.078125 114.4375 C-375.42885847 106.12100509 -365.25642939 98.54714316 -355 91 C-354.36980957 90.53207031 -353.73961914 90.06414062 -353.09033203 89.58203125 C-287.26294758 40.75144649 -207.88567772 10.97226427 -127 0 C-125.82131348 -0.16516113 -124.64262695 -0.33032227 -123.42822266 -0.50048828 C-83.53963158 -5.83035806 -39.83031008 -5.66163748 0 0 Z " fill="#8147FF" transform="translate(563,8)"/>
<path d="M0 0 C3.51923419 -0.00549378 7.03737958 -0.04376381 10.55630016 -0.08874416 C13.96013754 -0.12553695 17.36379285 -0.1270085 20.76782227 -0.13305664 C22.65044014 -0.16235512 22.65044014 -0.16235512 24.5710907 -0.19224548 C33.09223845 -0.14773178 33.09223845 -0.14773178 37.30029297 2.58544922 C39.29311182 5.9653095 39.59390858 7.56462944 38.97485352 11.42553711 C37.8359375 14.08081055 37.8359375 14.08081055 36.22094727 16.78491211 C35.32170532 18.31462646 35.32170532 18.31462646 34.40429688 19.87524414 C33.74695557 20.96434082 33.08961426 22.0534375 32.41235352 23.17553711 C31.72811933 24.33081235 31.0452817 25.48691575 30.36376953 26.64379883 C28.94650463 29.04724311 27.52329435 31.44701322 26.09594727 33.84448242 C22.80855326 39.37868609 19.61676155 44.96803882 16.41235352 50.55053711 C11.05355972 59.8492314 5.65626664 69.12491628 0.24194336 78.39135742 C-6.56102271 90.04212896 -13.29156835 101.73457455 -20.02514648 113.42553711 C-27.89849682 127.09539317 -35.78575863 140.75620155 -43.74926758 154.3737793 C-47.45454944 160.71525071 -51.12737144 167.07455476 -54.78417969 173.4440918 C-77.21025216 212.47607614 -101.82971412 253.90825596 -147.83764648 267.30053711 C-169.5937502 272.0596848 -191.97823042 269.2193123 -211.07983398 257.50366211 C-216.54918388 253.64465131 -221.2966055 249.14735186 -226.02514648 244.42553711 C-227.12149414 243.3465918 -227.12149414 243.3465918 -228.23999023 242.24584961 C-245.12118215 224.52895512 -251.56055453 200.7486201 -251.37866211 176.78222656 C-251.15380265 167.48830341 -249.99491787 158.50457523 -248.02514648 149.42553711 C-247.88012695 148.74281738 -247.73510742 148.06009766 -247.58569336 147.35668945 C-243.28710285 128.17585755 -233.47086926 109.30317386 -222.02514648 93.42553711 C-221.64181152 92.89105957 -221.25847656 92.35658203 -220.86352539 91.8059082 C-214.55535648 83.08799297 -207.46318917 75.18709017 -200.02514648 67.42553711 C-198.95973633 66.29825195 -198.95973633 66.29825195 -197.87280273 65.14819336 C-163.80787146 29.96866311 -115.36214451 12.2448849 -68.02514648 4.67553711 C-66.7933667 4.47669922 -65.56158691 4.27786133 -64.29248047 4.07299805 C-42.94960223 0.84756923 -21.5538731 0.02594878 0 0 Z " fill="#B445FF" transform="translate(410.025146484375,469.574462890625)"/>
<path d="M0 0 C4.16129602 -0.26561464 5.91209196 -0.01860489 9.51171875 2.28515625 C11.96554462 6.21127764 11.36292826 8.96457304 10.38671875 13.28515625 C9.3622716 16.4687693 8.0962596 19.52696612 6.79296875 22.60546875 C6.23079147 23.96799522 6.23079147 23.96799522 5.65725708 25.35804749 C4.83933146 27.3375762 4.01698281 29.31528184 3.19073486 31.29135132 C1.39924349 35.57604693 -0.37124809 39.86931445 -2.14266968 44.16233826 C-3.09886486 46.47962308 -4.05610517 48.79647688 -5.01431274 51.1129303 C-8.82231767 60.32936597 -12.57026204 69.56912277 -16.29296875 78.8203125 C-16.57207848 79.51380043 -16.8511882 80.20728836 -17.1387558 80.92179108 C-19.63351409 87.12159309 -22.12484428 93.32277129 -24.61547852 99.52423096 C-25.91794072 102.76696644 -27.22193406 106.00908297 -28.52679825 109.25085258 C-29.23003292 110.99934281 -29.93145047 112.74856354 -30.63278198 114.49781799 C-31.94782948 117.76518562 -33.27992513 121.02522347 -34.61328125 124.28515625 C-34.86088448 124.90642521 -35.1084877 125.52769417 -35.36359406 126.16778946 C-36.13066107 128.09087275 -36.91289779 130.00721464 -37.69775391 131.9230957 C-38.3910228 133.64119194 -38.3910228 133.64119194 -39.09829712 135.39399719 C-40.72759734 138.50331432 -41.46205786 139.77659512 -44.61328125 141.28515625 C-47.56228281 141.58615962 -50.30043119 141.71562735 -53.24975586 141.70507812 C-54.12012985 141.71354767 -54.99050385 141.72201721 -55.88725281 141.73074341 C-58.76352563 141.75413675 -61.63926425 141.75513503 -64.515625 141.75390625 C-66.51575434 141.76100631 -68.51588164 141.76870508 -70.51600647 141.77697754 C-74.70823834 141.79042765 -78.90028188 141.79198867 -83.0925293 141.78613281 C-88.46412712 141.78023566 -93.83482144 141.81082668 -99.20624447 141.85124969 C-103.33696866 141.87710206 -107.46747457 141.88000635 -111.59826851 141.87635803 C-113.57862176 141.87805153 -115.55898485 141.88771606 -117.53925896 141.90550232 C-120.3092581 141.92764392 -123.07741914 141.91801505 -125.84741211 141.90039062 C-126.66471802 141.91365387 -127.48202393 141.92691711 -128.32409668 141.94058228 C-132.57448321 141.87776076 -134.16018428 141.63973264 -137.62702942 138.92671204 C-139.61328125 136.28515625 -139.61328125 136.28515625 -140.15917969 133.4050293 C-139.48308726 129.54108244 -137.91555213 126.65107932 -135.87890625 123.3671875 C-135.29499115 122.39134956 -135.29499115 122.39134956 -134.69927979 121.39579773 C-133.43350462 119.28831938 -132.14905893 117.19297999 -130.86328125 115.09765625 C-129.98412939 113.64507355 -129.105878 112.1919455 -128.22851562 110.73828125 C-125.70934966 106.57532098 -123.16474757 102.42837421 -120.61328125 98.28515625 C-119.98615234 97.26341309 -119.35902344 96.24166992 -118.71289062 95.18896484 C-107.31660559 76.68521022 -95.12635589 58.8837198 -80.92578125 42.41015625 C-80.40322754 41.80357178 -79.88067383 41.1969873 -79.34228516 40.57202148 C-58.31790411 16.49081044 -31.67477552 3.4562909 0 0 Z " fill="#C044FF" transform="translate(732.61328125,256.71484375)"/>
</svg>
